<svg width="16" height="16" viewBox="0 0 16 16" fill="none" xmlns="http://www.w3.org/2000/svg">
<path fill-rule="evenodd" clip-rule="evenodd" d="M0 7.99911C0 7.69609 0.105345 7.40549 0.292861 7.19122C0.480376 6.97696 0.734701 6.85658 0.999888 6.85658H12.5846L8.29107 1.95287C8.10332 1.73834 7.99784 1.44737 7.99784 1.14397C7.99784 0.840568 8.10332 0.549596 8.29107 0.33506C8.47883 0.120525 8.73347 0 8.99899 0C9.26452 0 9.51916 0.120525 9.70692 0.33506L15.7062 7.1902C15.7994 7.29633 15.8732 7.42241 15.9236 7.56121C15.9741 7.70002 16 7.84883 16 7.99911C16 8.14939 15.9741 8.29819 15.9236 8.437C15.8732 8.5758 15.7994 8.70188 15.7062 8.80801L9.70692 15.6632C9.51916 15.8777 9.26452 15.9982 8.99899 15.9982C8.73347 15.9982 8.47883 15.8777 8.29107 15.6632C8.10332 15.4486 7.99784 15.1576 7.99784 14.8542C7.99784 14.5508 8.10332 14.2599 8.29107 14.0453L12.5846 9.14163H0.999888C0.734701 9.14163 0.480376 9.02126 0.292861 8.80699C0.105345 8.59273 0 8.30212 0 7.99911Z" fill="#DA3B01"/>
</svg>
