<svg width="16" height="16" viewBox="0 0 16 16" fill="none" xmlns="http://www.w3.org/2000/svg">
<path fill-rule="evenodd" clip-rule="evenodd" d="M8 -3.49691e-07C8.30305 -3.36444e-07 8.59369 0.105345 8.80798 0.29286C9.02226 0.480376 9.14265 0.734701 9.14265 0.999888L9.14265 12.5846L14.0469 8.29107C14.2615 8.10332 14.5525 7.99784 14.8559 7.99784C15.1593 7.99784 15.4503 8.10332 15.6649 8.29107C15.8795 8.47883 16 8.73347 16 8.99899C16 9.26452 15.8795 9.51916 15.6649 9.70692L8.809 15.7062C8.70285 15.7994 8.57676 15.8732 8.43794 15.9236C8.29912 15.9741 8.1503 16 8 16C7.8497 16 7.70088 15.9741 7.56206 15.9236C7.42324 15.8732 7.29714 15.7994 7.191 15.7062L0.335096 9.70692C0.120536 9.51916 -4.04965e-07 9.26452 -3.93359e-07 8.99899C-3.81752e-07 8.73347 0.120536 8.47883 0.335096 8.29107C0.549656 8.10332 0.840661 7.99784 1.14409 7.99784C1.44753 7.99784 1.73853 8.10332 1.95309 8.29107L6.85735 12.5846L6.85735 0.999888C6.85735 0.734701 6.97773 0.480376 7.19202 0.29286C7.40631 0.105345 7.69695 -3.62938e-07 8 -3.49691e-07Z" fill="white"/>
</svg>
